<svg xmlns="http://www.w3.org/2000/svg" xmlns:xlink="http://www.w3.org/1999/xlink" version="1.1" width="256" height="256" viewBox="0 0 256 256" xml:space="preserve">

<defs>
</defs>
<g style="stroke: none; stroke-width: 0; stroke-dasharray: none; stroke-linecap: butt; stroke-linejoin: miter; stroke-miterlimit: 10; fill: none; fill-rule: nonzero; opacity: 1;" transform="translate(1.4065934065934016 1.4065934065934016) scale(2.81 2.81)" >
	<path d="M 81.364 90 H 55.359 c -1.104 0 -2 -0.896 -2 -2 s 0.896 -2 2 -2 h 26.005 C 83.921 86 86 83.921 86 81.364 V 55.359 c 0 -1.104 0.896 -2 2 -2 s 2 0.896 2 2 v 26.005 C 90 86.126 86.126 90 81.364 90 z" style="stroke: none; stroke-width: 1; stroke-dasharray: none; stroke-linecap: butt; stroke-linejoin: miter; stroke-miterlimit: 10; fill: rgb(0,0,0); fill-rule: nonzero; opacity: 1;" transform=" matrix(1 0 0 1 0 0) " stroke-linecap="round" />
	<path d="M 34.641 90 H 8.635 C 3.874 90 0 86.126 0 81.364 V 55.359 c 0 -1.104 0.896 -2 2 -2 s 2 0.896 2 2 v 26.005 C 4 83.921 6.08 86 8.635 86 h 26.006 c 1.104 0 2 0.896 2 2 S 35.746 90 34.641 90 z" style="stroke: none; stroke-width: 1; stroke-dasharray: none; stroke-linecap: butt; stroke-linejoin: miter; stroke-miterlimit: 10; fill: rgb(0,0,0); fill-rule: nonzero; opacity: 1;" transform=" matrix(1 0 0 1 0 0) " stroke-linecap="round" />
	<path d="M 2 36.641 c -1.104 0 -2 -0.896 -2 -2 V 8.635 C 0 3.874 3.874 0 8.635 0 h 26.006 c 1.104 0 2 0.896 2 2 s -0.896 2 -2 2 H 8.635 C 6.08 4 4 6.08 4 8.635 v 26.006 C 4 35.746 3.104 36.641 2 36.641 z" style="stroke: none; stroke-width: 1; stroke-dasharray: none; stroke-linecap: butt; stroke-linejoin: miter; stroke-miterlimit: 10; fill: rgb(0,0,0); fill-rule: nonzero; opacity: 1;" transform=" matrix(1 0 0 1 0 0) " stroke-linecap="round" />
	<path d="M 88 36.641 c -1.104 0 -2 -0.896 -2 -2 V 8.635 C 86 6.08 83.921 4 81.364 4 H 55.359 c -1.104 0 -2 -0.896 -2 -2 s 0.896 -2 2 -2 h 26.005 C 86.126 0 90 3.874 90 8.635 v 26.006 C 90 35.746 89.104 36.641 88 36.641 z" style="stroke: none; stroke-width: 1; stroke-dasharray: none; stroke-linecap: butt; stroke-linejoin: miter; stroke-miterlimit: 10; fill: rgb(0,0,0); fill-rule: nonzero; opacity: 1;" transform=" matrix(1 0 0 1 0 0) " stroke-linecap="round" />
	<path d="M 71.167 76.911 H 18.833 c -3.167 0 -5.743 -2.577 -5.743 -5.744 V 18.833 c 0 -3.167 2.576 -5.743 5.743 -5.743 h 52.334 c 3.167 0 5.744 2.576 5.744 5.743 v 52.334 C 76.911 74.334 74.334 76.911 71.167 76.911 z M 18.833 17.089 c -0.961 0 -1.743 0.782 -1.743 1.743 v 52.334 c 0 0.962 0.782 1.744 1.743 1.744 h 52.334 c 0.962 0 1.744 -0.782 1.744 -1.744 V 18.833 c 0 -0.961 -0.782 -1.743 -1.744 -1.743 H 18.833 z" style="stroke: none; stroke-width: 1; stroke-dasharray: none; stroke-linecap: butt; stroke-linejoin: miter; stroke-miterlimit: 10; fill: rgb(0,0,0); fill-rule: nonzero; opacity: 1;" transform=" matrix(1 0 0 1 0 0) " stroke-linecap="round" />
</g>
</svg>